<svg xmlns="http://www.w3.org/2000/svg" xmlns:xlink="http://www.w3.org/1999/xlink" width="165" height="120" viewBox="0 0 165 120">
  <defs>
    <style>
      .cls-1 {
        fill: #fff;
        stroke: #707070;
      }

      .cls-2 {
        clip-path: url(#clip-path);
      }

      .cls-3 {
        fill: #f7f7f7;
      }

      .cls-4 {
        fill: #e8edee;
      }

      .cls-5 {
        fill: #ccc;
      }

      .cls-6 {
        fill: #f33;
      }

      .cls-7 {
        fill: #ff6;
      }

      .cls-8 {
        fill: #3c3;
      }
    </style>
    <clipPath id="clip-path">
      <rect id="Rectangle_1494" data-name="Rectangle 1494" class="cls-1" width="165" height="120" rx="10" transform="translate(379 551)"/>
    </clipPath>
  </defs>
  <g id="Mask_Group_14" data-name="Mask Group 14" class="cls-2" transform="translate(-379 -551)">
    <g id="light-theme-setting" transform="translate(379.069 551)">
      <path id="Path_363" data-name="Path 363" class="cls-3" d="M165,23v87.1a10.029,10.029,0,0,1-10,10H10a10.029,10.029,0,0,1-10-10L.1,10,165,9.1Z"/>
      <path id="Path_364" data-name="Path 364" class="cls-4" d="M155,0H10A10.029,10.029,0,0,0,0,10H165A10.029,10.029,0,0,0,155,0Z"/>
      <g id="Group_146" data-name="Group 146">
        <path id="Path_365" data-name="Path 365" class="cls-5" d="M137.9,102.2H95.2a2.818,2.818,0,0,1-2.8-2.9,2.883,2.883,0,0,1,2.8-2.9h42.7a2.818,2.818,0,0,1,2.8,2.9,2.883,2.883,0,0,1-2.8,2.9"/>
        <path id="Path_366" data-name="Path 366" class="cls-5" d="M52.6,85H24.1a2.818,2.818,0,0,1-2.8-2.9,2.883,2.883,0,0,1,2.8-2.9H52.5a2.818,2.818,0,0,1,2.8,2.9A2.738,2.738,0,0,1,52.6,85"/>
        <path id="Path_367" data-name="Path 367" class="cls-5" d="M123.6,85H81a2.818,2.818,0,0,1-2.8-2.9A2.883,2.883,0,0,1,81,79.2h42.7a2.818,2.818,0,0,1,2.8,2.9,2.9,2.9,0,0,1-2.9,2.9"/>
        <path id="Path_368" data-name="Path 368" class="cls-5" d="M66.8,85a4.253,4.253,0,0,1-1.1-.2,1.456,1.456,0,0,1-.9-.6,2.9,2.9,0,0,1,0-4,2.361,2.361,0,0,1,.9-.6,2.834,2.834,0,0,1,3.1,4.6,3.176,3.176,0,0,1-2,.8"/>
        <path id="Path_369" data-name="Path 369" class="cls-5" d="M81,102.2H38.3a2.818,2.818,0,0,1-2.8-2.9,2.883,2.883,0,0,1,2.8-2.9H81a2.9,2.9,0,0,1,0,5.8"/>
        <path id="Path_370" data-name="Path 370" class="cls-5" d="M24.1,102.2A4.253,4.253,0,0,1,23,102a1.8,1.8,0,0,1-.9-.6,2.973,2.973,0,0,1-.8-2,4.253,4.253,0,0,1,.2-1.1,1.456,1.456,0,0,1,.6-.9,3.052,3.052,0,0,1,2.6-.8.764.764,0,0,1,.5.2,1.332,1.332,0,0,1,.5.3c.2.1.3.2.5.3a2.361,2.361,0,0,1,.6.9,3.6,3.6,0,0,1,.2,1.1,2.792,2.792,0,0,1-.8,2,2.186,2.186,0,0,1-.5.3,2.186,2.186,0,0,1-.5.3c-.2.1-.3.1-.5.2-.2-.1-.4,0-.6,0"/>
        <path id="Path_371" data-name="Path 371" class="cls-5" d="M137.9,85a.749.749,0,0,1-.5-.1.764.764,0,0,1-.5-.2,1.332,1.332,0,0,1-.5-.3c-.1-.1-.3-.2-.4-.3a2.9,2.9,0,0,1,0-4l.4-.3c.2-.1.3-.2.5-.3s.3-.1.5-.2a2.855,2.855,0,0,1,2.6.8,13950882612410.637,13950882612410.637,0,0,1,.6,1c.1.2.1.3.2.5a4.331,4.331,0,0,0,.1.5,1.486,1.486,0,0,1-.1.6c0,.2-.1.3-.2.5a1.332,1.332,0,0,1-.3.5c-.1.1-.2.3-.3.4s-.3.2-.4.3c-.2.1-.3.2-.5.3s-.3.1-.5.2a2.639,2.639,0,0,1-.7.1"/>
        <path id="Path_372" data-name="Path 372" class="cls-5" d="M137.9,50.7H95.2a2.818,2.818,0,0,1-2.8-2.9,2.883,2.883,0,0,1,2.8-2.9h42.7a2.818,2.818,0,0,1,2.8,2.9,2.883,2.883,0,0,1-2.8,2.9"/>
        <path id="Path_373" data-name="Path 373" class="cls-5" d="M137.9,67.9H109.5a2.818,2.818,0,0,1-2.8-2.9,2.883,2.883,0,0,1,2.8-2.9h28.4a2.818,2.818,0,0,1,2.8,2.9,2.883,2.883,0,0,1-2.8,2.9"/>
        <path id="Path_374" data-name="Path 374" class="cls-5" d="M86.7,67.9H81A2.818,2.818,0,0,1,78.2,65,2.883,2.883,0,0,1,81,62.1h5.7A2.818,2.818,0,0,1,89.5,65a2.883,2.883,0,0,1-2.8,2.9"/>
        <path id="Path_375" data-name="Path 375" class="cls-5" d="M123.6,33.6H81a2.818,2.818,0,0,1-2.8-2.9A2.883,2.883,0,0,1,81,27.8h42.7a2.818,2.818,0,0,1,2.8,2.9,2.9,2.9,0,0,1-2.9,2.9"/>
        <path id="Path_376" data-name="Path 376" class="cls-5" d="M137.9,33.6a.749.749,0,0,1-.5-.1.764.764,0,0,1-.5-.2,1.332,1.332,0,0,1-.5-.3c-.1-.1-.3-.2-.4-.3a2.9,2.9,0,0,1,0-4l.4-.3c.2-.1.3-.2.5-.3s.3-.1.5-.2a2.855,2.855,0,0,1,2.6.8,2.186,2.186,0,0,1,.3.5,2.186,2.186,0,0,1,.3.5c.1.2.1.3.2.5a4.331,4.331,0,0,0,.1.5,1.486,1.486,0,0,1-.1.6c0,.2-.1.3-.2.5a1.332,1.332,0,0,1-.3.5c-.1.1-.2.3-.3.4s-.3.2-.4.3c-.2.1-.3.2-.5.3s-.3.1-.5.2a2.639,2.639,0,0,1-.7.1"/>
        <path id="Path_377" data-name="Path 377" class="cls-5" d="M83.8,50.7a2.973,2.973,0,0,1-2-.8,2.361,2.361,0,0,1-.6-.9,3.125,3.125,0,0,1,0-2.2,1.8,1.8,0,0,1,.6-.9,3.052,3.052,0,0,1,2.6-.8.764.764,0,0,1,.5.2,1.332,1.332,0,0,1,.5.3,1.38,1.38,0,0,1,.4.3,2.361,2.361,0,0,1,.6.9,3.6,3.6,0,0,1,.2,1.1,4.253,4.253,0,0,1-.2,1.1,1.456,1.456,0,0,1-.6.9c-.1.1-.3.2-.4.3a2.186,2.186,0,0,1-.5.3c-.2.1-.3.1-.5.2h-.6"/>
        <path id="Path_378" data-name="Path 378" class="cls-5" d="M98,67.9a2.792,2.792,0,0,1-2-.8,2.9,2.9,0,0,1,0-4,2.836,2.836,0,0,1,4,0,2.973,2.973,0,0,1,.8,2,1.268,1.268,0,0,1-.1.6c0,.2-.1.3-.2.5a1.332,1.332,0,0,1-.3.5c-.1.1-.2.3-.3.4a2.407,2.407,0,0,1-1.9.8"/>
      </g>
      <path id="Path_379" data-name="Path 379" class="cls-5" d="M24.1,67.9H63.9v-40H24.1Z"/>
      <path id="Path_380" data-name="Path 380" class="cls-4" d="M0,10A10.029,10.029,0,0,1,10,0H155a10.029,10.029,0,0,1,10,10Z"/>
      <path id="Path_381" data-name="Path 381" class="cls-6" d="M13.4,6.8h-.9a1.216,1.216,0,0,1-1.2-1.2V4.7a1.216,1.216,0,0,1,1.2-1.2h.9a1.216,1.216,0,0,1,1.2,1.2v.9A1.216,1.216,0,0,1,13.4,6.8Z"/>
      <path id="Path_382" data-name="Path 382" class="cls-7" d="M18.3,6.8h-.9a1.216,1.216,0,0,1-1.2-1.2V4.7a1.216,1.216,0,0,1,1.2-1.2h.9a1.216,1.216,0,0,1,1.2,1.2v.9A1.216,1.216,0,0,1,18.3,6.8Z"/>
      <path id="Path_383" data-name="Path 383" class="cls-8" d="M23.3,6.8h-.9a1.216,1.216,0,0,1-1.2-1.2V4.7a1.216,1.216,0,0,1,1.2-1.2h.9a1.216,1.216,0,0,1,1.2,1.2v.9A1.379,1.379,0,0,1,23.3,6.8Z"/>
    </g>
  </g>
</svg>
